<svg xmlns="http://www.w3.org/2000/svg" width="960" height="424" viewBox="0 0 960 424">
<rect width="100%" height="100%" fill="#ffffff"/>
<text x="24" y="32" font-family="Arial" font-size="18" font-weight="bold">Cross-Dataset Method Comparison (lower PPL is better)</text>
<text x="24" y="73" font-family="Arial" font-size="12">c4_en_streaming / dedup_only</text>
<rect x="330" y="58" width="299.6" height="18" fill="#4c78a8"/>
<text x="639.6" y="72" font-family="Arial" font-size="11">174.5871</text>
<text x="24" y="103" font-family="Arial" font-size="12">c4_en_streaming / hdqspp_v3</text>
<rect x="330" y="88" width="520.0" height="18" fill="#4c78a8"/>
<text x="860.0" y="102" font-family="Arial" font-size="11">302.9781</text>
<text x="24" y="133" font-family="Arial" font-size="12">c4_en_streaming / random_same_keep_rate</text>
<rect x="330" y="118" width="312.7" height="18" fill="#4c78a8"/>
<text x="652.7" y="132" font-family="Arial" font-size="11">182.1845</text>
<text x="24" y="163" font-family="Arial" font-size="12">c4_en_streaming / raw</text>
<rect x="330" y="148" width="299.6" height="18" fill="#4c78a8"/>
<text x="639.6" y="162" font-family="Arial" font-size="11">174.5871</text>
<text x="24" y="193" font-family="Arial" font-size="12">openwebtext_streaming / dedup_only</text>
<rect x="330" y="178" width="229.2" height="18" fill="#4c78a8"/>
<text x="569.2" y="192" font-family="Arial" font-size="11">133.5411</text>
<text x="24" y="223" font-family="Arial" font-size="12">openwebtext_streaming / hdqspp_v3</text>
<rect x="330" y="208" width="434.9" height="18" fill="#4c78a8"/>
<text x="774.9" y="222" font-family="Arial" font-size="11">253.3836</text>
<text x="24" y="253" font-family="Arial" font-size="12">openwebtext_streaming / random_same_keep_rate</text>
<rect x="330" y="238" width="377.9" height="18" fill="#4c78a8"/>
<text x="717.9" y="252" font-family="Arial" font-size="11">220.1726</text>
<text x="24" y="283" font-family="Arial" font-size="12">openwebtext_streaming / raw</text>
<rect x="330" y="268" width="229.2" height="18" fill="#4c78a8"/>
<text x="569.2" y="282" font-family="Arial" font-size="11">133.5411</text>
<text x="24" y="313" font-family="Arial" font-size="12">wikitext2_paper / dedup_only</text>
<rect x="330" y="298" width="21.8" height="18" fill="#4c78a8"/>
<text x="361.8" y="312" font-family="Arial" font-size="11">12.7261</text>
<text x="24" y="343" font-family="Arial" font-size="12">wikitext2_paper / hdqspp_v3</text>
<rect x="330" y="328" width="22.7" height="18" fill="#4c78a8"/>
<text x="362.7" y="342" font-family="Arial" font-size="11">13.2341</text>
<text x="24" y="373" font-family="Arial" font-size="12">wikitext2_paper / random_same_keep_rate</text>
<rect x="330" y="358" width="21.8" height="18" fill="#4c78a8"/>
<text x="361.8" y="372" font-family="Arial" font-size="11">12.7058</text>
<text x="24" y="403" font-family="Arial" font-size="12">wikitext2_paper / raw</text>
<rect x="330" y="388" width="21.7" height="18" fill="#4c78a8"/>
<text x="361.7" y="402" font-family="Arial" font-size="11">12.6214</text>
</svg>
