<svg xmlns="http://www.w3.org/2000/svg" width="900" height="420">
<desc>source=artifacts/diagnostics/hdqspp_failure_analysis.csv</desc>
<rect width="100%" height="100%" fill="white"/>
<text x="24" y="32" font-family="Arial" font-size="18">Quality score vs dev unigram loss proxy</text>
<line x1="70" y1="360" x2="840" y2="360" stroke="#333"/>
<line x1="70" y1="60" x2="70" y2="360" stroke="#333"/>
<circle cx="586.5" cy="260.5" r="3" fill="#4c78a8" opacity="0.55"/>
<circle cx="587.1" cy="219.5" r="3" fill="#4c78a8" opacity="0.55"/>
<circle cx="599.3" cy="220.5" r="3" fill="#4c78a8" opacity="0.55"/>
<circle cx="630.1" cy="340.6" r="3" fill="#4c78a8" opacity="0.55"/>
<circle cx="587.4" cy="278.2" r="3" fill="#4c78a8" opacity="0.55"/>
<circle cx="645.3" cy="297.6" r="3" fill="#4c78a8" opacity="0.55"/>
<circle cx="614.7" cy="265.2" r="3" fill="#4c78a8" opacity="0.55"/>
<circle cx="584.6" cy="282.7" r="3" fill="#4c78a8" opacity="0.55"/>
<circle cx="597.7" cy="260.9" r="3" fill="#4c78a8" opacity="0.55"/>
<circle cx="593.9" cy="254.2" r="3" fill="#4c78a8" opacity="0.55"/>
<circle cx="570.7" cy="226.8" r="3" fill="#4c78a8" opacity="0.55"/>
<circle cx="577.6" cy="234.8" r="3" fill="#4c78a8" opacity="0.55"/>
<circle cx="598.0" cy="215.2" r="3" fill="#4c78a8" opacity="0.55"/>
<circle cx="564.5" cy="234.7" r="3" fill="#4c78a8" opacity="0.55"/>
<circle cx="580.0" cy="230.6" r="3" fill="#4c78a8" opacity="0.55"/>
<circle cx="583.9" cy="242.7" r="3" fill="#4c78a8" opacity="0.55"/>
<circle cx="569.9" cy="238.5" r="3" fill="#4c78a8" opacity="0.55"/>
<circle cx="594.4" cy="246.4" r="3" fill="#4c78a8" opacity="0.55"/>
<circle cx="595.5" cy="258.1" r="3" fill="#4c78a8" opacity="0.55"/>
<circle cx="571.2" cy="251.9" r="3" fill="#4c78a8" opacity="0.55"/>
<circle cx="599.4" cy="248.3" r="3" fill="#4c78a8" opacity="0.55"/>
<circle cx="573.2" cy="253.4" r="3" fill="#4c78a8" opacity="0.55"/>
<circle cx="573.3" cy="279.1" r="3" fill="#4c78a8" opacity="0.55"/>
<circle cx="573.4" cy="259.3" r="3" fill="#4c78a8" opacity="0.55"/>
<circle cx="582.1" cy="240.5" r="3" fill="#4c78a8" opacity="0.55"/>
<circle cx="580.3" cy="241.4" r="3" fill="#4c78a8" opacity="0.55"/>
<circle cx="598.7" cy="238.2" r="3" fill="#4c78a8" opacity="0.55"/>
<circle cx="575.5" cy="262.3" r="3" fill="#4c78a8" opacity="0.55"/>
<circle cx="578.1" cy="205.2" r="3" fill="#4c78a8" opacity="0.55"/>
<circle cx="575.3" cy="221.7" r="3" fill="#4c78a8" opacity="0.55"/>
<circle cx="588.4" cy="255.9" r="3" fill="#4c78a8" opacity="0.55"/>
<circle cx="574.7" cy="247.5" r="3" fill="#4c78a8" opacity="0.55"/>
<circle cx="581.1" cy="248.5" r="3" fill="#4c78a8" opacity="0.55"/>
<circle cx="583.5" cy="235.3" r="3" fill="#4c78a8" opacity="0.55"/>
<circle cx="578.2" cy="263.6" r="3" fill="#4c78a8" opacity="0.55"/>
<circle cx="587.8" cy="229.2" r="3" fill="#4c78a8" opacity="0.55"/>
<circle cx="584.2" cy="265.9" r="3" fill="#4c78a8" opacity="0.55"/>
<circle cx="579.5" cy="254.1" r="3" fill="#4c78a8" opacity="0.55"/>
<circle cx="592.9" cy="242.5" r="3" fill="#4c78a8" opacity="0.55"/>
<circle cx="589.8" cy="212.5" r="3" fill="#4c78a8" opacity="0.55"/>
<circle cx="571.5" cy="230.1" r="3" fill="#4c78a8" opacity="0.55"/>
<circle cx="595.4" cy="258.8" r="3" fill="#4c78a8" opacity="0.55"/>
<circle cx="593.4" cy="236.0" r="3" fill="#4c78a8" opacity="0.55"/>
<circle cx="585.6" cy="273.9" r="3" fill="#4c78a8" opacity="0.55"/>
<circle cx="605.6" cy="264.1" r="3" fill="#4c78a8" opacity="0.55"/>
<circle cx="595.3" cy="237.7" r="3" fill="#4c78a8" opacity="0.55"/>
<circle cx="574.4" cy="219.1" r="3" fill="#4c78a8" opacity="0.55"/>
<circle cx="591.1" cy="253.9" r="3" fill="#4c78a8" opacity="0.55"/>
<circle cx="591.4" cy="255.3" r="3" fill="#4c78a8" opacity="0.55"/>
<circle cx="588.3" cy="259.4" r="3" fill="#4c78a8" opacity="0.55"/>
<circle cx="600.8" cy="248.2" r="3" fill="#4c78a8" opacity="0.55"/>
<circle cx="589.9" cy="232.9" r="3" fill="#4c78a8" opacity="0.55"/>
<circle cx="565.1" cy="245.6" r="3" fill="#4c78a8" opacity="0.55"/>
<circle cx="580.5" cy="243.9" r="3" fill="#4c78a8" opacity="0.55"/>
<circle cx="573.8" cy="239.8" r="3" fill="#4c78a8" opacity="0.55"/>
<circle cx="587.5" cy="247.5" r="3" fill="#4c78a8" opacity="0.55"/>
<circle cx="591.3" cy="243.3" r="3" fill="#4c78a8" opacity="0.55"/>
<circle cx="582.8" cy="240.8" r="3" fill="#4c78a8" opacity="0.55"/>
<circle cx="571.0" cy="225.3" r="3" fill="#4c78a8" opacity="0.55"/>
<circle cx="595.4" cy="246.7" r="3" fill="#4c78a8" opacity="0.55"/>
<circle cx="579.9" cy="259.4" r="3" fill="#4c78a8" opacity="0.55"/>
<circle cx="666.2" cy="284.0" r="3" fill="#4c78a8" opacity="0.55"/>
<circle cx="593.5" cy="253.8" r="3" fill="#4c78a8" opacity="0.55"/>
<circle cx="578.6" cy="262.9" r="3" fill="#4c78a8" opacity="0.55"/>
<circle cx="583.6" cy="264.2" r="3" fill="#4c78a8" opacity="0.55"/>
<circle cx="571.1" cy="285.3" r="3" fill="#4c78a8" opacity="0.55"/>
<circle cx="587.8" cy="237.0" r="3" fill="#4c78a8" opacity="0.55"/>
<circle cx="590.8" cy="251.1" r="3" fill="#4c78a8" opacity="0.55"/>
<circle cx="582.6" cy="255.3" r="3" fill="#4c78a8" opacity="0.55"/>
<circle cx="595.8" cy="256.1" r="3" fill="#4c78a8" opacity="0.55"/>
<circle cx="585.7" cy="231.2" r="3" fill="#4c78a8" opacity="0.55"/>
<circle cx="569.2" cy="254.4" r="3" fill="#4c78a8" opacity="0.55"/>
<circle cx="605.5" cy="238.9" r="3" fill="#4c78a8" opacity="0.55"/>
<circle cx="587.8" cy="293.6" r="3" fill="#4c78a8" opacity="0.55"/>
<circle cx="598.0" cy="227.5" r="3" fill="#4c78a8" opacity="0.55"/>
<circle cx="561.2" cy="245.4" r="3" fill="#4c78a8" opacity="0.55"/>
<circle cx="595.7" cy="232.3" r="3" fill="#4c78a8" opacity="0.55"/>
<circle cx="576.0" cy="276.7" r="3" fill="#4c78a8" opacity="0.55"/>
<circle cx="595.9" cy="243.6" r="3" fill="#4c78a8" opacity="0.55"/>
<circle cx="585.5" cy="268.5" r="3" fill="#4c78a8" opacity="0.55"/>
<circle cx="575.5" cy="196.0" r="3" fill="#4c78a8" opacity="0.55"/>
<circle cx="582.4" cy="240.1" r="3" fill="#4c78a8" opacity="0.55"/>
<circle cx="583.9" cy="232.3" r="3" fill="#4c78a8" opacity="0.55"/>
<circle cx="598.1" cy="249.0" r="3" fill="#4c78a8" opacity="0.55"/>
<circle cx="600.9" cy="253.8" r="3" fill="#4c78a8" opacity="0.55"/>
<circle cx="590.1" cy="196.1" r="3" fill="#4c78a8" opacity="0.55"/>
<circle cx="590.7" cy="214.9" r="3" fill="#4c78a8" opacity="0.55"/>
<circle cx="578.4" cy="255.4" r="3" fill="#4c78a8" opacity="0.55"/>
<circle cx="576.4" cy="239.4" r="3" fill="#4c78a8" opacity="0.55"/>
<circle cx="559.1" cy="256.6" r="3" fill="#4c78a8" opacity="0.55"/>
<circle cx="595.1" cy="238.7" r="3" fill="#4c78a8" opacity="0.55"/>
<circle cx="587.8" cy="237.0" r="3" fill="#4c78a8" opacity="0.55"/>
<circle cx="556.8" cy="252.2" r="3" fill="#4c78a8" opacity="0.55"/>
<circle cx="594.1" cy="242.3" r="3" fill="#4c78a8" opacity="0.55"/>
<circle cx="592.4" cy="249.8" r="3" fill="#4c78a8" opacity="0.55"/>
<circle cx="584.0" cy="257.3" r="3" fill="#4c78a8" opacity="0.55"/>
<circle cx="594.0" cy="278.7" r="3" fill="#4c78a8" opacity="0.55"/>
<circle cx="580.2" cy="224.8" r="3" fill="#4c78a8" opacity="0.55"/>
<circle cx="575.8" cy="252.1" r="3" fill="#4c78a8" opacity="0.55"/>
<circle cx="589.9" cy="263.5" r="3" fill="#4c78a8" opacity="0.55"/>
<circle cx="596.2" cy="235.6" r="3" fill="#4c78a8" opacity="0.55"/>
<circle cx="594.9" cy="250.3" r="3" fill="#4c78a8" opacity="0.55"/>
<circle cx="573.3" cy="261.0" r="3" fill="#4c78a8" opacity="0.55"/>
<circle cx="563.5" cy="260.4" r="3" fill="#4c78a8" opacity="0.55"/>
<circle cx="585.0" cy="240.4" r="3" fill="#4c78a8" opacity="0.55"/>
<circle cx="567.9" cy="245.0" r="3" fill="#4c78a8" opacity="0.55"/>
<circle cx="578.9" cy="255.3" r="3" fill="#4c78a8" opacity="0.55"/>
<circle cx="593.8" cy="248.8" r="3" fill="#4c78a8" opacity="0.55"/>
<circle cx="587.2" cy="231.2" r="3" fill="#4c78a8" opacity="0.55"/>
<circle cx="575.3" cy="254.6" r="3" fill="#4c78a8" opacity="0.55"/>
<circle cx="581.0" cy="255.8" r="3" fill="#4c78a8" opacity="0.55"/>
<circle cx="597.7" cy="261.1" r="3" fill="#4c78a8" opacity="0.55"/>
<circle cx="571.9" cy="282.6" r="3" fill="#4c78a8" opacity="0.55"/>
<circle cx="572.9" cy="230.6" r="3" fill="#4c78a8" opacity="0.55"/>
<circle cx="605.7" cy="261.2" r="3" fill="#4c78a8" opacity="0.55"/>
<circle cx="589.4" cy="248.5" r="3" fill="#4c78a8" opacity="0.55"/>
<circle cx="681.4" cy="172.3" r="3" fill="#4c78a8" opacity="0.55"/>
<circle cx="486.7" cy="360.0" r="3" fill="#4c78a8" opacity="0.55"/>
<circle cx="681.3" cy="288.6" r="3" fill="#4c78a8" opacity="0.55"/>
<circle cx="610.4" cy="227.9" r="3" fill="#4c78a8" opacity="0.55"/>
<circle cx="680.2" cy="60.0" r="3" fill="#4c78a8" opacity="0.55"/>
<circle cx="681.3" cy="288.6" r="3" fill="#4c78a8" opacity="0.55"/>
<circle cx="644.6" cy="228.4" r="3" fill="#4c78a8" opacity="0.55"/>
<circle cx="680.2" cy="60.0" r="3" fill="#4c78a8" opacity="0.55"/>
<circle cx="603.5" cy="263.4" r="3" fill="#4c78a8" opacity="0.55"/>
<circle cx="581.0" cy="271.1" r="3" fill="#4c78a8" opacity="0.55"/>
<circle cx="586.6" cy="255.5" r="3" fill="#4c78a8" opacity="0.55"/>
<circle cx="572.9" cy="251.2" r="3" fill="#4c78a8" opacity="0.55"/>
<circle cx="576.9" cy="262.5" r="3" fill="#4c78a8" opacity="0.55"/>
<circle cx="585.1" cy="246.3" r="3" fill="#4c78a8" opacity="0.55"/>
<circle cx="575.6" cy="278.1" r="3" fill="#4c78a8" opacity="0.55"/>
<circle cx="580.2" cy="203.5" r="3" fill="#4c78a8" opacity="0.55"/>
<circle cx="582.3" cy="256.8" r="3" fill="#4c78a8" opacity="0.55"/>
<circle cx="551.9" cy="286.2" r="3" fill="#4c78a8" opacity="0.55"/>
<circle cx="713.7" cy="247.4" r="3" fill="#4c78a8" opacity="0.55"/>
<circle cx="597.5" cy="263.3" r="3" fill="#4c78a8" opacity="0.55"/>
<circle cx="581.0" cy="218.3" r="3" fill="#4c78a8" opacity="0.55"/>
<circle cx="561.4" cy="225.6" r="3" fill="#4c78a8" opacity="0.55"/>
<circle cx="575.6" cy="285.9" r="3" fill="#4c78a8" opacity="0.55"/>
<circle cx="561.8" cy="242.0" r="3" fill="#4c78a8" opacity="0.55"/>
<circle cx="586.0" cy="228.1" r="3" fill="#4c78a8" opacity="0.55"/>
<circle cx="589.5" cy="220.8" r="3" fill="#4c78a8" opacity="0.55"/>
<circle cx="596.2" cy="251.3" r="3" fill="#4c78a8" opacity="0.55"/>
<circle cx="577.7" cy="233.7" r="3" fill="#4c78a8" opacity="0.55"/>
<circle cx="586.7" cy="247.2" r="3" fill="#4c78a8" opacity="0.55"/>
<circle cx="577.0" cy="277.9" r="3" fill="#4c78a8" opacity="0.55"/>
<circle cx="599.1" cy="240.1" r="3" fill="#4c78a8" opacity="0.55"/>
<circle cx="572.5" cy="243.9" r="3" fill="#4c78a8" opacity="0.55"/>
<circle cx="567.4" cy="244.5" r="3" fill="#4c78a8" opacity="0.55"/>
<circle cx="576.8" cy="258.9" r="3" fill="#4c78a8" opacity="0.55"/>
<circle cx="581.9" cy="237.6" r="3" fill="#4c78a8" opacity="0.55"/>
<circle cx="579.9" cy="228.5" r="3" fill="#4c78a8" opacity="0.55"/>
<circle cx="602.9" cy="253.7" r="3" fill="#4c78a8" opacity="0.55"/>
<circle cx="602.5" cy="247.8" r="3" fill="#4c78a8" opacity="0.55"/>
<circle cx="552.2" cy="238.0" r="3" fill="#4c78a8" opacity="0.55"/>
<circle cx="571.7" cy="248.4" r="3" fill="#4c78a8" opacity="0.55"/>
<circle cx="576.3" cy="263.6" r="3" fill="#4c78a8" opacity="0.55"/>
<circle cx="550.7" cy="267.2" r="3" fill="#4c78a8" opacity="0.55"/>
<circle cx="601.8" cy="262.5" r="3" fill="#4c78a8" opacity="0.55"/>
<circle cx="579.9" cy="249.9" r="3" fill="#4c78a8" opacity="0.55"/>
<circle cx="582.3" cy="229.1" r="3" fill="#4c78a8" opacity="0.55"/>
<circle cx="591.7" cy="245.7" r="3" fill="#4c78a8" opacity="0.55"/>
<circle cx="573.0" cy="277.1" r="3" fill="#4c78a8" opacity="0.55"/>
<circle cx="583.2" cy="231.1" r="3" fill="#4c78a8" opacity="0.55"/>
<circle cx="583.0" cy="243.5" r="3" fill="#4c78a8" opacity="0.55"/>
<circle cx="590.4" cy="241.8" r="3" fill="#4c78a8" opacity="0.55"/>
<circle cx="591.6" cy="245.5" r="3" fill="#4c78a8" opacity="0.55"/>
<circle cx="592.1" cy="258.4" r="3" fill="#4c78a8" opacity="0.55"/>
<circle cx="587.9" cy="256.0" r="3" fill="#4c78a8" opacity="0.55"/>
<circle cx="604.0" cy="233.9" r="3" fill="#4c78a8" opacity="0.55"/>
<circle cx="567.0" cy="262.9" r="3" fill="#4c78a8" opacity="0.55"/>
<circle cx="598.5" cy="258.7" r="3" fill="#4c78a8" opacity="0.55"/>
<circle cx="572.1" cy="245.6" r="3" fill="#4c78a8" opacity="0.55"/>
<circle cx="578.5" cy="265.4" r="3" fill="#4c78a8" opacity="0.55"/>
<circle cx="577.1" cy="193.5" r="3" fill="#4c78a8" opacity="0.55"/>
<circle cx="599.7" cy="238.1" r="3" fill="#4c78a8" opacity="0.55"/>
<circle cx="570.9" cy="226.3" r="3" fill="#4c78a8" opacity="0.55"/>
<circle cx="580.6" cy="237.9" r="3" fill="#4c78a8" opacity="0.55"/>
<circle cx="571.0" cy="217.0" r="3" fill="#4c78a8" opacity="0.55"/>
<circle cx="580.3" cy="255.7" r="3" fill="#4c78a8" opacity="0.55"/>
<circle cx="593.8" cy="270.3" r="3" fill="#4c78a8" opacity="0.55"/>
<circle cx="584.6" cy="244.1" r="3" fill="#4c78a8" opacity="0.55"/>
<circle cx="592.0" cy="224.4" r="3" fill="#4c78a8" opacity="0.55"/>
<circle cx="591.9" cy="259.7" r="3" fill="#4c78a8" opacity="0.55"/>
<circle cx="586.5" cy="261.3" r="3" fill="#4c78a8" opacity="0.55"/>
<circle cx="606.1" cy="264.7" r="3" fill="#4c78a8" opacity="0.55"/>
<circle cx="590.8" cy="264.4" r="3" fill="#4c78a8" opacity="0.55"/>
<circle cx="581.5" cy="229.8" r="3" fill="#4c78a8" opacity="0.55"/>
<circle cx="584.3" cy="263.6" r="3" fill="#4c78a8" opacity="0.55"/>
<circle cx="586.9" cy="244.9" r="3" fill="#4c78a8" opacity="0.55"/>
<circle cx="582.7" cy="242.9" r="3" fill="#4c78a8" opacity="0.55"/>
<circle cx="593.5" cy="258.0" r="3" fill="#4c78a8" opacity="0.55"/>
<circle cx="574.2" cy="250.8" r="3" fill="#4c78a8" opacity="0.55"/>
<circle cx="574.5" cy="255.8" r="3" fill="#4c78a8" opacity="0.55"/>
<circle cx="573.2" cy="273.4" r="3" fill="#4c78a8" opacity="0.55"/>
<circle cx="577.1" cy="226.9" r="3" fill="#4c78a8" opacity="0.55"/>
<circle cx="588.3" cy="269.8" r="3" fill="#4c78a8" opacity="0.55"/>
<circle cx="573.7" cy="249.8" r="3" fill="#4c78a8" opacity="0.55"/>
<circle cx="593.4" cy="286.0" r="3" fill="#4c78a8" opacity="0.55"/>
<circle cx="583.9" cy="253.3" r="3" fill="#4c78a8" opacity="0.55"/>
<circle cx="589.2" cy="239.2" r="3" fill="#4c78a8" opacity="0.55"/>
<circle cx="628.2" cy="227.0" r="3" fill="#4c78a8" opacity="0.55"/>
<circle cx="573.5" cy="240.4" r="3" fill="#4c78a8" opacity="0.55"/>
<circle cx="557.7" cy="256.9" r="3" fill="#4c78a8" opacity="0.55"/>
<circle cx="581.3" cy="240.4" r="3" fill="#4c78a8" opacity="0.55"/>
<circle cx="598.9" cy="259.0" r="3" fill="#4c78a8" opacity="0.55"/>
<circle cx="587.2" cy="231.2" r="3" fill="#4c78a8" opacity="0.55"/>
<circle cx="589.3" cy="250.0" r="3" fill="#4c78a8" opacity="0.55"/>
<circle cx="594.6" cy="248.4" r="3" fill="#4c78a8" opacity="0.55"/>
<circle cx="579.4" cy="225.0" r="3" fill="#4c78a8" opacity="0.55"/>
<circle cx="570.2" cy="241.2" r="3" fill="#4c78a8" opacity="0.55"/>
<circle cx="592.8" cy="243.1" r="3" fill="#4c78a8" opacity="0.55"/>
<circle cx="594.4" cy="246.2" r="3" fill="#4c78a8" opacity="0.55"/>
<circle cx="574.4" cy="253.0" r="3" fill="#4c78a8" opacity="0.55"/>
<circle cx="554.5" cy="251.9" r="3" fill="#4c78a8" opacity="0.55"/>
<circle cx="595.2" cy="244.7" r="3" fill="#4c78a8" opacity="0.55"/>
<circle cx="597.6" cy="258.9" r="3" fill="#4c78a8" opacity="0.55"/>
<circle cx="603.3" cy="258.2" r="3" fill="#4c78a8" opacity="0.55"/>
<circle cx="573.4" cy="239.2" r="3" fill="#4c78a8" opacity="0.55"/>
<circle cx="577.5" cy="242.3" r="3" fill="#4c78a8" opacity="0.55"/>
<circle cx="596.0" cy="237.7" r="3" fill="#4c78a8" opacity="0.55"/>
<circle cx="597.7" cy="236.9" r="3" fill="#4c78a8" opacity="0.55"/>
<circle cx="584.6" cy="226.4" r="3" fill="#4c78a8" opacity="0.55"/>
<circle cx="583.5" cy="224.7" r="3" fill="#4c78a8" opacity="0.55"/>
<circle cx="595.5" cy="244.1" r="3" fill="#4c78a8" opacity="0.55"/>
<circle cx="600.3" cy="258.3" r="3" fill="#4c78a8" opacity="0.55"/>
<circle cx="569.1" cy="243.9" r="3" fill="#4c78a8" opacity="0.55"/>
<circle cx="587.5" cy="264.1" r="3" fill="#4c78a8" opacity="0.55"/>
<circle cx="595.7" cy="241.9" r="3" fill="#4c78a8" opacity="0.55"/>
<circle cx="599.7" cy="222.1" r="3" fill="#4c78a8" opacity="0.55"/>
<circle cx="571.1" cy="247.6" r="3" fill="#4c78a8" opacity="0.55"/>
<circle cx="581.4" cy="232.6" r="3" fill="#4c78a8" opacity="0.55"/>
<circle cx="586.7" cy="241.0" r="3" fill="#4c78a8" opacity="0.55"/>
<circle cx="541.8" cy="268.2" r="3" fill="#4c78a8" opacity="0.55"/>
<circle cx="587.8" cy="236.8" r="3" fill="#4c78a8" opacity="0.55"/>
<circle cx="597.2" cy="244.3" r="3" fill="#4c78a8" opacity="0.55"/>
<circle cx="590.8" cy="258.1" r="3" fill="#4c78a8" opacity="0.55"/>
<circle cx="601.7" cy="256.7" r="3" fill="#4c78a8" opacity="0.55"/>
<circle cx="591.3" cy="242.8" r="3" fill="#4c78a8" opacity="0.55"/>
<circle cx="598.0" cy="237.4" r="3" fill="#4c78a8" opacity="0.55"/>
<circle cx="577.3" cy="272.7" r="3" fill="#4c78a8" opacity="0.55"/>
<circle cx="595.7" cy="214.0" r="3" fill="#4c78a8" opacity="0.55"/>
<circle cx="559.7" cy="270.9" r="3" fill="#4c78a8" opacity="0.55"/>
<circle cx="586.4" cy="231.6" r="3" fill="#4c78a8" opacity="0.55"/>
<circle cx="589.1" cy="250.2" r="3" fill="#4c78a8" opacity="0.55"/>
<circle cx="581.4" cy="260.9" r="3" fill="#4c78a8" opacity="0.55"/>
<circle cx="586.6" cy="269.7" r="3" fill="#4c78a8" opacity="0.55"/>
<circle cx="583.7" cy="258.3" r="3" fill="#4c78a8" opacity="0.55"/>
<circle cx="596.5" cy="254.8" r="3" fill="#4c78a8" opacity="0.55"/>
<circle cx="556.7" cy="218.0" r="3" fill="#4c78a8" opacity="0.55"/>
<circle cx="587.1" cy="255.1" r="3" fill="#4c78a8" opacity="0.55"/>
<circle cx="575.8" cy="248.1" r="3" fill="#4c78a8" opacity="0.55"/>
<circle cx="582.6" cy="243.8" r="3" fill="#4c78a8" opacity="0.55"/>
<circle cx="584.8" cy="242.4" r="3" fill="#4c78a8" opacity="0.55"/>
<circle cx="586.2" cy="262.8" r="3" fill="#4c78a8" opacity="0.55"/>
<circle cx="581.1" cy="249.7" r="3" fill="#4c78a8" opacity="0.55"/>
<circle cx="576.6" cy="208.4" r="3" fill="#4c78a8" opacity="0.55"/>
<circle cx="584.3" cy="243.2" r="3" fill="#4c78a8" opacity="0.55"/>
<circle cx="581.6" cy="239.7" r="3" fill="#4c78a8" opacity="0.55"/>
<circle cx="570.5" cy="223.4" r="3" fill="#4c78a8" opacity="0.55"/>
<circle cx="597.1" cy="230.4" r="3" fill="#4c78a8" opacity="0.55"/>
<circle cx="576.2" cy="259.9" r="3" fill="#4c78a8" opacity="0.55"/>
<circle cx="594.3" cy="259.6" r="3" fill="#4c78a8" opacity="0.55"/>
<circle cx="587.0" cy="221.9" r="3" fill="#4c78a8" opacity="0.55"/>
<circle cx="607.8" cy="230.9" r="3" fill="#4c78a8" opacity="0.55"/>
<circle cx="592.9" cy="257.9" r="3" fill="#4c78a8" opacity="0.55"/>
<circle cx="583.0" cy="265.2" r="3" fill="#4c78a8" opacity="0.55"/>
<circle cx="585.7" cy="221.4" r="3" fill="#4c78a8" opacity="0.55"/>
<circle cx="588.8" cy="239.3" r="3" fill="#4c78a8" opacity="0.55"/>
<circle cx="586.2" cy="236.1" r="3" fill="#4c78a8" opacity="0.55"/>
<circle cx="585.4" cy="253.4" r="3" fill="#4c78a8" opacity="0.55"/>
<circle cx="583.3" cy="266.1" r="3" fill="#4c78a8" opacity="0.55"/>
<circle cx="572.3" cy="219.1" r="3" fill="#4c78a8" opacity="0.55"/>
<circle cx="567.1" cy="194.7" r="3" fill="#4c78a8" opacity="0.55"/>
<circle cx="594.4" cy="222.0" r="3" fill="#4c78a8" opacity="0.55"/>
<circle cx="579.5" cy="251.8" r="3" fill="#4c78a8" opacity="0.55"/>
<circle cx="592.7" cy="204.0" r="3" fill="#4c78a8" opacity="0.55"/>
<circle cx="588.1" cy="252.0" r="3" fill="#4c78a8" opacity="0.55"/>
<circle cx="592.2" cy="260.2" r="3" fill="#4c78a8" opacity="0.55"/>
<circle cx="585.6" cy="257.4" r="3" fill="#4c78a8" opacity="0.55"/>
<circle cx="596.9" cy="242.5" r="3" fill="#4c78a8" opacity="0.55"/>
<circle cx="577.2" cy="237.0" r="3" fill="#4c78a8" opacity="0.55"/>
<circle cx="599.2" cy="252.7" r="3" fill="#4c78a8" opacity="0.55"/>
<circle cx="576.2" cy="246.5" r="3" fill="#4c78a8" opacity="0.55"/>
<circle cx="589.4" cy="250.3" r="3" fill="#4c78a8" opacity="0.55"/>
<circle cx="577.0" cy="230.0" r="3" fill="#4c78a8" opacity="0.55"/>
<circle cx="595.0" cy="237.9" r="3" fill="#4c78a8" opacity="0.55"/>
<circle cx="580.8" cy="248.5" r="3" fill="#4c78a8" opacity="0.55"/>
<circle cx="598.4" cy="251.2" r="3" fill="#4c78a8" opacity="0.55"/>
<circle cx="576.2" cy="275.3" r="3" fill="#4c78a8" opacity="0.55"/>
<circle cx="595.4" cy="260.0" r="3" fill="#4c78a8" opacity="0.55"/>
<circle cx="576.5" cy="281.8" r="3" fill="#4c78a8" opacity="0.55"/>
<circle cx="595.7" cy="280.9" r="3" fill="#4c78a8" opacity="0.55"/>
<circle cx="577.6" cy="253.0" r="3" fill="#4c78a8" opacity="0.55"/>
<circle cx="562.6" cy="234.9" r="3" fill="#4c78a8" opacity="0.55"/>
<circle cx="564.2" cy="256.8" r="3" fill="#4c78a8" opacity="0.55"/>
<circle cx="589.9" cy="242.8" r="3" fill="#4c78a8" opacity="0.55"/>
<circle cx="596.0" cy="229.5" r="3" fill="#4c78a8" opacity="0.55"/>
<circle cx="573.7" cy="229.0" r="3" fill="#4c78a8" opacity="0.55"/>
<circle cx="661.3" cy="208.7" r="3" fill="#4c78a8" opacity="0.55"/>
<circle cx="584.9" cy="266.7" r="3" fill="#4c78a8" opacity="0.55"/>
<circle cx="541.5" cy="248.3" r="3" fill="#4c78a8" opacity="0.55"/>
<circle cx="585.1" cy="241.4" r="3" fill="#4c78a8" opacity="0.55"/>
<circle cx="598.5" cy="236.1" r="3" fill="#4c78a8" opacity="0.55"/>
<circle cx="573.8" cy="253.4" r="3" fill="#4c78a8" opacity="0.55"/>
<circle cx="564.0" cy="267.4" r="3" fill="#4c78a8" opacity="0.55"/>
<circle cx="593.3" cy="245.7" r="3" fill="#4c78a8" opacity="0.55"/>
<circle cx="589.1" cy="247.3" r="3" fill="#4c78a8" opacity="0.55"/>
<circle cx="585.7" cy="232.5" r="3" fill="#4c78a8" opacity="0.55"/>
<circle cx="589.2" cy="239.3" r="3" fill="#4c78a8" opacity="0.55"/>
<circle cx="583.4" cy="234.1" r="3" fill="#4c78a8" opacity="0.55"/>
<circle cx="562.8" cy="233.7" r="3" fill="#4c78a8" opacity="0.55"/>
<circle cx="583.2" cy="218.0" r="3" fill="#4c78a8" opacity="0.55"/>
<circle cx="604.9" cy="252.3" r="3" fill="#4c78a8" opacity="0.55"/>
<circle cx="582.2" cy="233.2" r="3" fill="#4c78a8" opacity="0.55"/>
</svg>
