<svg xmlns="http://www.w3.org/2000/svg" width="820" height="450" viewBox="0 0 820 450">
<rect width="100%" height="100%" fill="white"/>
<text x="410.0" y="28" text-anchor="middle" font-family="Arial" font-size="18">Documents retained by intervention</text>
<line x1="72" y1="378" x2="748" y2="378" stroke="#111827"/>
<text x="18" y="225.0" text-anchor="middle" transform="rotate(-90 18 225.0)" font-family="Arial" font-size="13">Documents</text>
<rect x="76.0" y="72.0" width="21.4" height="306.0" fill="#2563eb"/>
<text x="86.7" y="392" text-anchor="end" transform="rotate(-38 86.7 392)" font-family="Arial" font-size="10">raw_noisy_baseline</text>
<rect x="105.4" y="72.0" width="21.4" height="306.0" fill="#dc2626"/>
<text x="116.1" y="392" text-anchor="end" transform="rotate(-38 116.1 392)" font-family="Arial" font-size="10">clean_only</text>
<rect x="134.8" y="72.0" width="21.4" height="306.0" fill="#16a34a"/>
<text x="145.5" y="392" text-anchor="end" transform="rotate(-38 145.5 392)" font-family="Arial" font-size="10">pii_redact_only</text>
<rect x="164.2" y="106.0" width="21.4" height="272.0" fill="#9333ea"/>
<text x="174.9" y="392" text-anchor="end" transform="rotate(-38 174.9 392)" font-family="Arial" font-size="10">exact_dedup_only</text>
<rect x="193.6" y="157.0" width="21.4" height="221.0" fill="#ea580c"/>
<text x="204.3" y="392" text-anchor="end" transform="rotate(-38 204.3 392)" font-family="Arial" font-size="10">near_dedup_only</text>
<rect x="223.0" y="157.0" width="21.4" height="221.0" fill="#0891b2"/>
<text x="233.7" y="392" text-anchor="end" transform="rotate(-38 233.7 392)" font-family="Arial" font-size="10">jaccard_near_dedup_only</text>
<rect x="252.3" y="157.0" width="21.4" height="221.0" fill="#2563eb"/>
<text x="263.0" y="392" text-anchor="end" transform="rotate(-38 263.0 392)" font-family="Arial" font-size="10">rule_filter_only</text>
<rect x="281.7" y="157.0" width="21.4" height="221.0" fill="#dc2626"/>
<text x="292.4" y="392" text-anchor="end" transform="rotate(-38 292.4 392)" font-family="Arial" font-size="10">rule_quality_filter</text>
<rect x="311.1" y="259.0" width="21.4" height="119.0" fill="#16a34a"/>
<text x="321.8" y="392" text-anchor="end" transform="rotate(-38 321.8 392)" font-family="Arial" font-size="10">perplexity_filter_proxy</text>
<rect x="340.5" y="259.0" width="21.4" height="119.0" fill="#9333ea"/>
<text x="351.2" y="392" text-anchor="end" transform="rotate(-38 351.2 392)" font-family="Arial" font-size="10">proxy_perplexity_filter</text>
<rect x="369.9" y="225.0" width="21.4" height="153.0" fill="#ea580c"/>
<text x="380.6" y="392" text-anchor="end" transform="rotate(-38 380.6 392)" font-family="Arial" font-size="10">hdqs_filter</text>
<rect x="399.3" y="225.0" width="21.4" height="153.0" fill="#0891b2"/>
<text x="410.0" y="392" text-anchor="end" transform="rotate(-38 410.0 392)" font-family="Arial" font-size="10">hdqs_curriculum</text>
<rect x="428.7" y="225.0" width="21.4" height="153.0" fill="#2563eb"/>
<text x="439.4" y="392" text-anchor="end" transform="rotate(-38 439.4 392)" font-family="Arial" font-size="10">full_pipeline_without_clean</text>
<rect x="458.1" y="225.0" width="21.4" height="153.0" fill="#dc2626"/>
<text x="468.8" y="392" text-anchor="end" transform="rotate(-38 468.8 392)" font-family="Arial" font-size="10">full_pipeline_without_redact</text>
<rect x="487.5" y="225.0" width="21.4" height="153.0" fill="#16a34a"/>
<text x="498.2" y="392" text-anchor="end" transform="rotate(-38 498.2 392)" font-family="Arial" font-size="10">full_pipeline_without_exact_dedup</text>
<rect x="516.9" y="191.0" width="21.4" height="187.0" fill="#9333ea"/>
<text x="527.6" y="392" text-anchor="end" transform="rotate(-38 527.6 392)" font-family="Arial" font-size="10">full_pipeline_without_near_dedup</text>
<rect x="546.3" y="225.0" width="21.4" height="153.0" fill="#ea580c"/>
<text x="557.0" y="392" text-anchor="end" transform="rotate(-38 557.0 392)" font-family="Arial" font-size="10">full_without_hdqs</text>
<rect x="575.7" y="225.0" width="21.4" height="153.0" fill="#0891b2"/>
<text x="586.3" y="392" text-anchor="end" transform="rotate(-38 586.3 392)" font-family="Arial" font-size="10">full_pipeline</text>
<rect x="605.0" y="225.0" width="21.4" height="153.0" fill="#2563eb"/>
<text x="615.7" y="392" text-anchor="end" transform="rotate(-38 615.7 392)" font-family="Arial" font-size="10">full_pipeline_without_hdqs</text>
<rect x="634.4" y="157.0" width="21.4" height="221.0" fill="#dc2626"/>
<text x="645.1" y="392" text-anchor="end" transform="rotate(-38 645.1 392)" font-family="Arial" font-size="10">minhash_lsh_near_dedup_only</text>
<rect x="663.8" y="225.0" width="21.4" height="153.0" fill="#16a34a"/>
<text x="674.5" y="392" text-anchor="end" transform="rotate(-38 674.5 392)" font-family="Arial" font-size="10">random_retention_matched_baseline</text>
<rect x="693.2" y="225.0" width="21.4" height="153.0" fill="#9333ea"/>
<text x="703.9" y="392" text-anchor="end" transform="rotate(-38 703.9 392)" font-family="Arial" font-size="10">length_matched_baseline</text>
<rect x="722.6" y="225.0" width="21.4" height="153.0" fill="#ea580c"/>
<text x="733.3" y="392" text-anchor="end" transform="rotate(-38 733.3 392)" font-family="Arial" font-size="10">quality_retention_matched_baseline</text>
</svg>