<svg xmlns="http://www.w3.org/2000/svg" width="760" height="430" viewBox="0 0 760 430">
<rect width="100%" height="100%" fill="white"/>
<text x="380.0" y="28" text-anchor="middle" font-family="Arial" font-size="18">Tiny Shakespeare held-out validation loss</text>
<line x1="62" y1="368" x2="698" y2="368" stroke="#111827"/>
<line x1="62" y1="62" x2="62" y2="368" stroke="#111827"/>
<text x="380.0" y="414" text-anchor="middle" font-family="Arial" font-size="13">Training step</text>
<text x="18" y="215.0" text-anchor="middle" transform="rotate(-90 18 215.0)" font-family="Arial" font-size="13">Validation loss</text>
<polyline points="62.0,62.0 168.0,288.9 274.0,341.8 380.0,352.3 486.0,358.2 592.0,360.5 698.0,366.2" fill="none" stroke="#2563eb" stroke-width="2.5"/>
<text x="553" y="62" font-family="Arial" font-size="12" fill="#2563eb">raw_noisy_baseline</text>
<polyline points="62.0,62.0 168.0,291.1 274.0,336.2 380.0,347.7 486.0,355.4 592.0,358.1 698.0,364.8" fill="none" stroke="#dc2626" stroke-width="2.5"/>
<text x="553" y="80" font-family="Arial" font-size="12" fill="#dc2626">clean_redact</text>
<polyline points="62.0,62.0 168.0,298.7 274.0,343.3 380.0,352.7 486.0,360.5 592.0,363.0 698.0,368.0" fill="none" stroke="#16a34a" stroke-width="2.5"/>
<text x="553" y="98" font-family="Arial" font-size="12" fill="#16a34a">full_pipeline</text>
</svg>